# xmcd CD database file
#
# Track frame offsets:
#	182
#	15900
#	27690
#	48810
#	64535
#	81300
#	97902
#	113525
#	128572
#	146222
#	162127
#	175965
#	195540
#	213925
#
# Disc length: 2920 seconds
#
# Revision: 0
# Processed by: cddbd v1.4PL0 Copyright (c) Steve Scherf et al.
# Submitted via: CDex 1.40Release
#
DISCID=af0b660e
DTITLE=No Way Home - Gone
DYEAR=1993
DGENRE=Country
TTITLE0=Run
TTITLE1=My Number Ain't 911
TTITLE2=Hungry Arms
TTITLE3=Can't Live Like This Anymore
TTITLE4=Dying On The Vine
TTITLE5=Do I Have To Have A Reason
TTITLE6=One City Legend
TTITLE7=When You Want To
TTITLE8=Warm Ways
TTITLE9=You Walk In The Light
TTITLE10=Joker Gone Wild
TTITLE11=If I Let Myself Dream
TTITLE12=No Way Home
TTITLE13=Dying On The Vine (Reprise)
EXTD=YEAR: 1993 ID3G: 2
EXTT0=
EXTT1=
EXTT2=
EXTT3=
EXTT4=
EXTT5=
EXTT6=
EXTT7=
EXTT8=
EXTT9=
EXTT10=
EXTT11=
EXTT12=
EXTT13=
PLAYORDER=
